<?xml version="1.0" encoding="UTF-8"?>
<svg width="24px" height="24px" viewBox="0 0 24 24" version="1.1" xmlns="http://www.w3.org/2000/svg">
    <circle cx="9" cy="8" r="4" fill="#FFB300" />
    <path fill="#CCCCCC" d="M18.5,12h-1.17c-0.41-2.89-2.92-5-5.83-5c-0.95,0-1.85,0.22-2.65,0.61c1.22,0.9,2.15,2.17,2.15,3.89 c0,0.18-0.01,0.35-0.03,0.52H10.5c-0.41,0-0.8,0.08-1.16,0.21c-0.18,0.55-0.3,1.12-0.34,1.72H7.83C7.42,11.05,4.91,8.94,2,8.94v2 c2.47,0,4.5,2.03,4.5,4.5s-2.03,4.5-4.5,4.5H18c2.47,0,4.5-2.03,4.5-4.5S20.97,12,18.5,12z"/>
</svg>
